<?xml version="1.0" encoding="utf-8"?>
<!-- Generator: Adobe Illustrator 18.0.0, SVG Export Plug-In . SVG Version: 6.00 Build 0)  -->
<!DOCTYPE svg PUBLIC "-//W3C//DTD SVG 1.1//EN" "http://www.w3.org/Graphics/SVG/1.1/DTD/svg11.dtd">
<svg version="1.1" id="Layer_1" xmlns="http://www.w3.org/2000/svg" xmlns:xlink="http://www.w3.org/1999/xlink" x="0px" y="0px"
	 viewBox="0 0 155.1 93.6" enable-background="new 0 0 155.1 93.6" xml:space="preserve">
<g>
	<g>
		<g>
			<g>
				<path fill="#FFFFFF" d="M18.7,37c0.7,0,1.1,0.5,1.1,1.4v2.4c0,3.3,1,13.1,3.1,29.4v0.6c0,1.2-0.4,1.8-1.2,1.8
					c-0.7-0.1-1.1-0.5-1.1-1.1v-0.8c0-1.5-0.6-6.7-1.9-15.7c-3.5,0.2-5.2,0.5-5.2,0.8l0.1,0.1v0.1c0.3,5.2,0.5,9.9,0.5,14.1v2.9
					c0,1.2-0.4,1.8-1.3,1.8c-0.5,0-0.9-0.4-0.9-1.3v-2.8c0-5-0.2-9.8-0.5-14.5h-0.2c-0.6,0-1.1-0.3-1.4-0.8v-0.6
					c0.4-0.6,0.9-0.9,1.4-0.9c0-1.9-0.6-6.9-1.9-15.2c0-0.6,0.5-1,1.4-1.1c0.6,0,1.1,1.8,1.4,5.4c0.3,1.6,0.7,5,1.3,10.1h0.1
					l5.1-0.5c-0.8-6.4-1.2-11-1.2-13.8C17.4,37.7,17.8,37,18.7,37z"/>
				<path fill="#FFFFFF" d="M12.8,75.5c-0.5,0-1.3-0.2-1.5-1.8l0,0v-2.8c0-4.8-0.1-9.5-0.4-13.9c-0.7-0.1-1.2-0.4-1.6-1.1l-0.1-0.1
					v-0.9l0.1-0.1c0.4-0.5,0.8-0.9,1.3-1c-0.1-2.1-0.7-7.1-1.9-14.7l0-0.1c0-0.5,0.2-1.4,1.9-1.6l0.1,0c0.9,0,1.5,1,2,5.9
					c0.3,1.6,0.7,4.7,1.2,9.6l4.1-0.4c-0.7-6.1-1.1-10.6-1.1-13.3c0-2.2,1.2-2.6,1.8-2.6c0.5,0,1.6,0.2,1.6,2v2.4
					c0,3.2,1,13.1,3.1,29.4l0,0.1v0.6c0,2-1.1,2.3-1.7,2.3l-0.1,0c-1-0.2-1.5-0.7-1.5-1.6v-0.8c0-1.4-0.6-6.5-1.8-15.1
					c-2.6,0.2-3.6,0.3-4,0.5v0c0.3,5.1,0.5,9.9,0.5,14.1v2.9C14.7,75.3,13.4,75.5,12.8,75.5z M12.4,73.6c0.1,0.8,0.3,0.8,0.4,0.8
					c0.3,0,0.7,0,0.7-1.2v-2.9c0-4.2-0.2-8.9-0.5-14L13,56.1v-0.2c0-0.6,0.3-1.1,5.7-1.4l0.5,0l0.1,0.5c1.3,9.1,1.9,14.2,1.9,15.7
					v0.8c0,0.2,0,0.4,0.6,0.5c0.2,0,0.6-0.1,0.6-1.2v-0.6c-2-16.3-3.1-26.2-3.1-29.5v-2.4c0-0.9-0.3-0.9-0.5-0.9
					c-0.2,0-0.7,0-0.7,1.5c0,2.7,0.4,7.4,1.2,13.7l0.1,0.6l-5.8,0.5h-0.5l-0.1-0.5c-0.5-5.1-1-8.5-1.3-10.1l0-0.1
					c-0.3-3.8-0.8-4.7-0.9-4.9c-0.7,0.1-0.8,0.3-0.8,0.5c1.3,8.3,1.9,13.3,1.9,15.2v0.5l-0.5,0.1c-0.3,0-0.6,0.2-0.9,0.6v0.2
					c0.2,0.3,0.5,0.4,0.9,0.4h0.7l0,0.5c0.3,4.6,0.5,9.5,0.5,14.5V73.6z"/>
			</g>
			<g>
				<path fill="#FFFFFF" d="M34.6,37.3c0.4,0,0.7,0.4,1.1,1.1l-0.1,0.6c2.2,14.3,3.7,25.2,4.6,32.7c-0.2,0.7-0.6,1.1-1.2,1.1
					c-0.9,0-1.4-1.9-1.5-5.7l-0.5-2.9l-2,0.1c-1.3,0-3.3-0.2-5.9-0.5c-1.8,6.3-3.1,9.4-3.8,9.4h-0.1C24.4,73,24,72.6,24,72
					c2-4.9,4.2-13.4,6.6-25.3c1-3.7,2-6.7,2.8-9C33.7,37.4,34.1,37.3,34.6,37.3z M29.6,61.5C31,61.8,32.5,62,34,62h2
					c0.3,0,0.5-0.1,0.7-0.4L34,43.5h-0.1c-0.5,0.8-1.2,3.5-2.1,8.1L29.6,61.5z"/>
				<path fill="#FFFFFF" d="M25.3,73.7l-0.2,0c-1.4-0.3-1.6-1.2-1.6-1.7v-0.1l0-0.1c2-4.9,4.2-13.4,6.6-25.2l0,0c1-3.7,2-6.7,2.8-9
					l0-0.1l0.1-0.1c0.4-0.4,1-0.6,1.6-0.6c0.9,0,1.4,1,1.6,1.4l0.1,0.2l-0.1,0.7c2.2,14.2,3.7,25.2,4.6,32.7l0,0.1l0,0.1
					c-0.4,1.2-1.1,1.4-1.7,1.4c-1.3,0-1.9-1.8-2.1-6.1l-0.4-2.4l-1.5,0.1c-1.3,0-3.1-0.1-5.5-0.4C26.7,73.7,25.9,73.7,25.3,73.7z
					 M24.5,72.1c0,0.2,0.1,0.4,0.7,0.5c0.3-0.2,1.2-1.6,3.3-9l0.1-0.4l0.5,0.1c2.6,0.3,4.5,0.5,5.8,0.5l2.5-0.1l0.6,3.5
					c0.2,4.9,1,5.1,1,5.1c0.1,0,0.4,0,0.6-0.6C38.7,64.1,37.1,53.1,35,39l0-0.1l0.1-0.5c-0.3-0.6-0.5-0.6-0.5-0.6
					c-0.3,0-0.5,0.1-0.7,0.2c-0.8,2.2-1.8,5.2-2.8,8.8C28.8,58.6,26.5,67.1,24.5,72.1z M36,62.5h-2c-1.5,0-3.1-0.2-4.5-0.5L29,61.9
					l2.2-10.4c1.3-6.3,1.9-7.8,2.2-8.3l0.2-0.3h0.9l2.8,18.8L37.1,62C36.8,62.3,36.4,62.5,36,62.5z M30.3,61.1
					c1.2,0.2,2.4,0.3,3.7,0.3h2c0,0,0.1,0,0.1,0l-2.4-15.9c-0.3,1.2-0.8,3.1-1.4,6.3L30.3,61.1z"/>
			</g>
			<g>
				<path fill="#FFFFFF" d="M46.3,36.5c2.4,0,4.3,1.5,5.5,4.6l0.2,1.4c0,2.8-1.6,6.6-4.8,11.2c-1.1,1-2.1,1.7-2.9,2l0.1,1.1
					l0.2,14.6c0,0.6-0.4,0.9-1.2,1.1c-0.7,0-1.1-0.5-1.1-1.4c0-10.9-0.2-16.4-0.7-16.4c-0.6-0.9-0.9-1.5-0.9-2
					c0-0.5,0.4-0.8,1.2-0.9l-0.4-11.5c0-1.9,0.4-2.8,1.2-2.8l0.7,0.1C44.4,36.8,45.3,36.5,46.3,36.5z M43.9,40l0.2,12.2l0.1,0.8
					c1.6-0.6,3.2-3.1,4.8-7.4c0.5-1.2,0.7-2.4,0.7-3.5c-0.7-2.3-1.8-3.4-3.3-3.4H46C45.2,38.8,44.5,39.2,43.9,40z"/>
				<path fill="#FFFFFF" d="M43.5,73L43.5,73c-0.5,0-1.6-0.2-1.6-2c0-12.1-0.3-15.2-0.5-15.9L41.2,55c-0.7-1-1-1.7-1-2.3
					c0-0.5,0.2-1,1.2-1.4L41,40.2c0-2.3,0.6-3.4,1.7-3.4l0.1,0l0.5,0.1c1-0.6,2-0.9,2.9-0.9c2.7,0,4.7,1.7,6,4.9l0,0.1l0.2,1.5
					c0,3-1.6,6.8-4.9,11.5l-0.1,0.1c-1,1-1.9,1.6-2.7,2l0.1,0.7l0.2,14.6C45.2,71.8,45,72.8,43.5,73L43.5,73z M42,54.2
					c0.6,0.3,0.9,2.5,0.9,16.9c0,0.8,0.3,0.9,0.5,0.9c0.7-0.1,0.7-0.4,0.7-0.5l-0.2-14.6l-0.2-1.5l0.4-0.1c0.8-0.3,1.7-0.9,2.7-1.8
					c3.1-4.4,4.7-8.1,4.7-10.8l-0.2-1.3c-1.2-2.8-2.8-4.2-5-4.2c-0.8,0-1.7,0.3-2.5,0.9L43.6,38l-0.9-0.1c-0.4,0-0.6,0.9-0.6,2.3
					l0.4,12L42,52.2c-0.2,0-0.7,0.2-0.7,0.4C41.3,52.8,41.4,53.3,42,54.2z M43.8,53.9l-0.2-1.6l-0.2-12.4l0.1-0.1
					c0.7-1,1.6-1.5,2.6-1.5h0.5c1.8,0,3.1,1.3,3.8,3.8l0,0.1v0.1c0,1.2-0.3,2.5-0.7,3.7c-1.7,4.5-3.3,7-5.1,7.7L43.8,53.9z
					 M44.5,40.2l0.2,12c1-0.7,2.3-2.6,3.9-6.7c0.4-1.1,0.7-2.2,0.7-3.3c-0.6-2-1.5-2.9-2.7-2.9H46C45.5,39.3,44.9,39.6,44.5,40.2z"
					/>
			</g>
			<g>
				<path fill="#FFFFFF" d="M57.9,36.5c2.4,0,4.3,1.5,5.5,4.6l0.2,1.4c0,2.8-1.6,6.6-4.8,11.2c-1.1,1-2.1,1.7-2.9,2l0.1,1.1
					l0.2,14.6c0,0.6-0.4,0.9-1.2,1.1C54.4,72.4,54,72,54,71c0-10.9-0.2-16.4-0.7-16.4c-0.6-0.9-0.9-1.5-0.9-2c0-0.5,0.4-0.8,1.2-0.9
					l-0.4-11.5c0-1.9,0.4-2.8,1.2-2.8l0.7,0.1C56,36.8,57,36.5,57.9,36.5z M55.5,40l0.2,12.2l0.1,0.8c1.6-0.6,3.2-3.1,4.8-7.4
					c0.5-1.2,0.7-2.4,0.7-3.5c-0.7-2.3-1.8-3.4-3.3-3.4h-0.5C56.9,38.8,56.1,39.2,55.5,40z"/>
				<path fill="#FFFFFF" d="M55.1,73L55.1,73c-0.5,0-1.6-0.2-1.6-2c0-12.1-0.3-15.2-0.5-15.9L52.9,55c-0.7-1-1-1.7-1-2.3
					c0-0.5,0.2-1,1.2-1.4l-0.3-11.1c0-2.3,0.6-3.4,1.7-3.4l0.1,0l0.5,0.1c1-0.6,2-0.9,2.9-0.9c2.7,0,4.7,1.7,6,4.9l0,0.1l0.2,1.5
					c0,3-1.6,6.8-4.9,11.5l-0.1,0.1c-1,0.9-1.9,1.6-2.7,2l0.1,0.7l0.2,14.6C56.8,71.9,56.6,72.8,55.1,73L55.1,73z M53.6,54.2
					c0.4,0.2,0.6,1.1,0.8,4.6c0.1,2.7,0.2,6.9,0.2,12.3c0,0.8,0.3,0.9,0.5,0.9c0.7-0.1,0.7-0.4,0.7-0.5l-0.2-14.6l-0.2-1.5l0.4-0.1
					c0.8-0.3,1.7-0.9,2.7-1.8c3.1-4.5,4.7-8.1,4.7-10.8l-0.2-1.3c-1.2-2.8-2.8-4.2-5-4.2c-0.8,0-1.7,0.3-2.5,0.9L55.2,38l-0.9-0.1
					c-0.4,0-0.6,0.9-0.6,2.3l0.4,12l-0.5,0.1c-0.2,0-0.7,0.2-0.7,0.4C52.9,52.8,53,53.3,53.6,54.2z M55.5,53.9l-0.2-1.6L55,39.9
					l0.1-0.1c0.7-1,1.6-1.5,2.6-1.5h0.5c1.8,0,3.1,1.3,3.8,3.8l0,0.1v0.1c0,1.2-0.3,2.5-0.7,3.7c-1.7,4.5-3.3,7-5.1,7.7L55.5,53.9z
					 M56.1,40.2l0.2,12c1-0.7,2.3-2.6,3.9-6.7c0.4-1.1,0.7-2.2,0.7-3.3c-0.6-2-1.5-2.9-2.7-2.9h-0.5C57.1,39.3,56.6,39.6,56.1,40.2z
					"/>
			</g>
			<g>
				<path fill="#FFFFFF" d="M78,37c0.4,0,0.7,0.4,1.1,1.1c-1.4,5.8-2.4,11.9-3,18.2c-0.6,6.4-1.4,11.9-2.4,16.6L73,73.4
					c-0.9-0.3-1.3-0.6-1.3-1.1l2.2-14.7c-1.6-2-2.8-4.1-3.6-6.5c-1.1-2.9-3.1-6.7-6-11.4l-0.4-0.9c0-0.6,0.4-0.9,1.3-1.1
					c0.4,0.1,1.1,1,1.9,2.7c1.7,2.3,3.9,6.5,6.5,12.7l0.4,1C75.6,41.5,76.9,35.8,78,37z"/>
				<path fill="#FFFFFF" d="M73.1,74l-0.3-0.1c-1.1-0.3-1.7-0.9-1.7-1.6l0-0.1l2.1-14.5c-1.5-1.9-2.7-4.1-3.5-6.5
					c-1.1-2.9-3.1-6.7-5.9-11.3l0-0.1l-0.4-1v-0.1c0-0.6,0.3-1.3,1.7-1.6l0.1,0l0.1,0c0.5,0.1,1.1,0.5,2.3,3
					c1.6,2.2,3.7,6.2,6.1,11.9c2-15.1,3.1-15.5,3.8-15.7c0.3-0.1,0.6,0,0.8,0.1c0.8,0.2,1.2,1,1.3,1.3l0.1,0.2l0,0.2
					c-1.4,5.7-2.4,11.8-3,18.1c-0.6,6.4-1.4,12-2.4,16.7l0,0.2L73.1,74z M72.2,72.3c0,0.1,0.2,0.3,0.7,0.4l0.3-0.2
					c1-4.6,1.8-10.1,2.4-16.3c0.6-6.3,1.6-12.4,3-18.1c-0.3-0.5-0.5-0.6-0.5-0.6h-0.2l-0.1-0.1c-0.5,0.6-1.6,3.5-3.2,16.7l-0.3,2.1
					l-1.2-3c-2.6-6.1-4.7-10.4-6.4-12.6l-0.1-0.1c-0.9-1.8-1.3-2.2-1.5-2.4c-0.5,0.1-0.6,0.3-0.7,0.4l0.3,0.8
					c2.9,4.7,4.9,8.5,6,11.5c0.8,2.3,2,4.4,3.5,6.3l0.2,0.2L72.2,72.3z"/>
			</g>
		</g>
		<g>
			<g>
				<path fill="#FFFFFF" d="M94.2,36.9h0.1c2,0.1,2.9,0.3,2.9,0.8v0.7c-0.2,0.4-0.5,0.7-0.9,0.8l-1.6-0.1h-0.8v0.1
					c0.4,20,0.9,30,1.6,30l4-0.6c0.5,0.2,0.8,0.6,0.8,1.1v0.1c0,0.8-1.5,1.3-4.6,1.5c-2,0.4-3.6,0.6-4.7,0.6
					c-0.5-0.2-0.8-0.6-0.8-1.1c0-0.9,0.9-1.3,2.8-1.3v-0.1c-0.6-4.1-1.1-14.1-1.4-30.1h-0.1L88.1,40c-0.6-0.3-0.9-0.7-0.9-1.3
					c0-0.7,1.6-1.2,4.7-1.5C91.9,37,92.7,36.9,94.2,36.9z"/>
				<path fill="#FFFFFF" d="M91.1,72.6h-0.1l-0.1,0c-1-0.4-1.2-1.1-1.2-1.6c0-1.1,0.9-1.7,2.8-1.8c-0.6-4.3-1-14.1-1.3-29.1L88,40.5
					l-0.1-0.1c-1.1-0.5-1.3-1.2-1.3-1.8c0-1.1,1.5-1.7,5-2.1c0.4-0.2,1.1-0.2,2.6-0.3l0.1,0c1.8,0.1,3.5,0.3,3.5,1.4v0.8l-0.1,0.1
					c-0.2,0.5-0.7,0.9-1.3,1.1l-0.1,0l-1.7-0.1h-0.2c0.4,22.2,1,27.8,1.4,29l3.8-0.6l0.1,0.1c1,0.4,1.2,1.1,1.2,1.6v0.1
					c0,1.2-1.5,1.8-5.1,2.1C93.8,72.4,92.2,72.6,91.1,72.6z M93.1,70.2c-0.7,0-2.3,0.1-2.3,0.7c0,0.1,0,0.3,0.4,0.5
					c1.1,0,2.6-0.2,4.5-0.6l0.1,0c3.9-0.3,4.1-1,4.1-1v-0.1c0-0.1,0-0.3-0.4-0.5l-3.9,0.6c-0.6,0-0.9-0.7-1.1-2.4
					c-0.2-1.3-0.3-3.2-0.4-5.7c-0.3-5-0.5-12.6-0.7-22.5l0-0.7l1.4,0l1.5,0.1c0.2-0.1,0.4-0.2,0.5-0.4v-0.5
					c-0.1-0.1-0.6-0.3-2.4-0.4l-0.1,0c-1,0-1.5,0.1-1.8,0.1v0.1l-0.5,0.1c-3.6,0.4-4.1,0.9-4.2,1c0,0.2,0.1,0.5,0.5,0.7l3.3-0.6h0.7
					l0,0.5c0.3,15.9,0.8,26,1.4,30.1l0,0.1v0.7H93.1z"/>
			</g>
			<g>
				<path fill="#FFFFFF" d="M104.6,36.5h1.9c2.4,0,4.1,0.4,4.9,1.3l0.2,0.7v0.1c0,0.6-0.4,1-1.2,1.1c-0.8-0.6-2.2-0.9-4.5-0.9h-0.4
					v0.1c0,4.6,0.1,11,0.2,19.2c0.1,8.2,0.5,12.7,1.1,13.6c-0.3,0.7-0.7,1.1-1.3,1.1c-1,1.1-1.7-3.2-1.9-12.9
					c-0.2-9.7-0.3-16.7-0.3-21v-0.1l-3.3,0.2c-0.6-0.3-0.9-0.7-0.9-1.2C99.2,36.9,101,36.5,104.6,36.5z"/>
				<path fill="#FFFFFF" d="M105.3,73.4c-0.1,0-0.2,0-0.3-0.1c-0.6-0.2-1.6-0.6-1.9-13.5c-0.2-9.3-0.3-16.2-0.3-20.5l-2.9,0.2
					l-0.1-0.1c-1-0.5-1.3-1.2-1.3-1.7c0-1.3,1.8-1.8,6-1.8h1.9c2.6,0,4.4,0.5,5.3,1.5l0.1,0.1l0.3,0.9v0.2c0,0.4-0.2,1.5-1.7,1.6
					l-0.2,0l-0.2-0.1c-0.4-0.4-1.5-0.8-3.9-0.8c0,4.6,0.1,10.9,0.2,18.8c0.1,10.9,0.8,12.9,1,13.2l0.2,0.2l-0.1,0.3
					c-0.4,1-1,1.3-1.6,1.4C105.7,73.3,105.5,73.4,105.3,73.4z M103.9,38.1v0.7c0,4.3,0.1,11.3,0.3,21c0.2,9.3,0.8,11.7,1.1,12.4l0,0
					h0.2c0.2,0,0.5-0.1,0.7-0.5c-0.5-1-0.9-3.8-1.1-13.6c-0.1-8.1-0.2-14.6-0.2-19.2v-0.7h0.9c2.2,0,3.7,0.3,4.6,0.9
					c0.5-0.1,0.5-0.3,0.5-0.5v0l-0.2-0.5c-0.8-0.7-2.3-1-4.5-1h-1.9c-4.7,0-4.9,0.7-4.9,0.7c0,0.1,0,0.3,0.5,0.6L103.9,38.1z"/>
			</g>
			<g>
				<path fill="#FFFFFF" d="M120.2,37.3c0.4,0,0.7,0.4,1.1,1.1l-0.1,0.6c2.2,14.3,3.7,25.2,4.6,32.7c-0.2,0.7-0.6,1.1-1.2,1.1
					c-0.9,0-1.4-1.9-1.5-5.7l-0.5-2.9l-2,0.1c-1.3,0-3.3-0.2-5.9-0.5c-1.8,6.3-3.1,9.4-3.8,9.4h-0.1c-0.8-0.2-1.2-0.6-1.2-1.2
					c2-4.9,4.2-13.4,6.6-25.3c1-3.7,2-6.7,2.8-9C119.3,37.4,119.7,37.3,120.2,37.3z M115.2,61.5c1.4,0.3,2.8,0.5,4.4,0.5h2
					c0.3,0,0.5-0.1,0.7-0.4l-2.7-18.1h-0.1c-0.5,0.8-1.2,3.5-2.1,8.1L115.2,61.5z"/>
				<path fill="#FFFFFF" d="M110.9,73.7l-0.2,0c-1.4-0.3-1.6-1.2-1.6-1.7v-0.1l0-0.1c2-4.9,4.2-13.4,6.6-25.2l0,0c1-3.7,2-6.7,2.8-9
					l0-0.1l0.1-0.1c0.4-0.4,1-0.6,1.6-0.6c0.9,0,1.4,1,1.6,1.4l0.1,0.2l-0.1,0.7c2.2,14.2,3.7,25.2,4.6,32.7l0,0.1l0,0.1
					c-0.4,1.2-1.2,1.4-1.7,1.4c-1.3,0-1.9-1.8-2.1-6.1l-0.4-2.4l-1.5,0.1c-1.3,0-3.1-0.1-5.5-0.4C112.3,73.7,111.5,73.7,110.9,73.7z
					 M110.1,72.1c0,0.2,0.1,0.4,0.7,0.5c0.3-0.2,1.2-1.6,3.3-9l0.1-0.4l0.5,0.1c2.6,0.3,4.5,0.5,5.8,0.5l2.5-0.1l0.6,3.5
					c0.2,4.9,1,5.1,1,5.1c0.1,0,0.4,0,0.6-0.6c-0.9-7.5-2.4-18.5-4.6-32.6l0-0.1l0.1-0.5c-0.3-0.6-0.5-0.6-0.5-0.6
					c-0.3,0-0.5,0.1-0.7,0.2c-0.8,2.3-1.8,5.2-2.8,8.8C114.4,58.6,112.2,67.1,110.1,72.1z M121.6,62.5h-2c-1.5,0-3.1-0.2-4.5-0.5
					l-0.5-0.1l2.2-10.4c1.3-6.3,1.9-7.8,2.2-8.3l0.2-0.3h0.9l2.8,18.8l-0.2,0.2C122.4,62.3,122,62.5,121.6,62.5z M115.9,61.1
					c1.2,0.2,2.4,0.3,3.7,0.3h2c0,0,0.1,0,0.1,0l-2.4-15.9c-0.3,1.2-0.8,3.1-1.4,6.3L115.9,61.1z"/>
			</g>
			<g>
				<path fill="#FFFFFF" d="M127.7,36.7c0.8,0,1.2,1.2,1.2,3.5c0.6,19.5,1.2,29.2,1.8,29.2l1.1-0.2l4.2,0.1l1.4-0.4
					c0.4,0,0.7,0.4,1.1,1.1c-0.2,1-1.3,1.5-3.1,1.5l-3.9-0.1c-0.3,0-0.9,0.3-1.6,0.8h-0.6c-0.8,0-1.3-2.9-1.5-8.7
					c-0.3-3.7-0.7-12.4-1.2-26C126.7,37,127.1,36.7,127.7,36.7z"/>
				<path fill="#FFFFFF" d="M130,72.9h-0.8c-1.1,0-1.7-1.5-2.1-9.2c-0.3-3.7-0.7-12.5-1.2-26l0-0.1l0-0.1c0.3-0.8,0.9-1.2,1.7-1.2
					c1.5,0,1.7,2.3,1.7,4.1c0.7,21.5,1.2,27.2,1.5,28.6l0.7-0.2l4.2,0.1l1.4-0.3h0.1c0.9,0,1.4,1,1.6,1.4L139,70l0,0.2
					c-0.3,1.3-1.5,2-3.6,2l-3.9-0.1c0,0-0.3,0-1.3,0.7L130,72.9z M129.3,71.8h0.3c1.1-0.7,1.5-0.8,1.8-0.8l3.9,0.1
					c1.4,0,2.2-0.3,2.5-0.9c-0.2-0.4-0.4-0.5-0.4-0.5l-1.4,0.3l-4.2-0.1l-1.1,0.2c-0.6,0-0.8-0.7-1-2.3c-0.1-1.2-0.3-3.1-0.4-5.5
					c-0.3-4.9-0.6-12.2-0.9-21.9c0-3-0.6-3-0.6-3c-0.3,0-0.5,0.1-0.6,0.4c0.5,13.5,0.9,22.2,1.2,25.9
					C128.6,70.3,129.2,71.5,129.3,71.8z"/>
			</g>
			<g>
				<path fill="#FFFFFF" d="M146.5,37c0.4,0,0.7,0.4,1.1,1.1c-1.4,5.8-2.4,11.9-3,18.2c-0.6,6.4-1.4,11.9-2.4,16.6l-0.7,0.5
					c-0.9-0.3-1.3-0.6-1.3-1.1l2.2-14.7c-1.6-2-2.8-4.1-3.6-6.5c-1.1-2.9-3.1-6.7-6-11.4l-0.4-0.9c0-0.6,0.4-0.9,1.3-1.1
					c0.4,0.1,1.1,1,1.9,2.7c1.7,2.3,3.9,6.5,6.5,12.7l0.4,1C144,41.5,145.4,35.8,146.5,37z"/>
				<path fill="#FFFFFF" d="M141.5,74l-0.3-0.1c-1.1-0.3-1.7-0.9-1.7-1.6l0-0.1l2.1-14.5c-1.5-1.9-2.7-4.1-3.5-6.5
					c-1.1-2.9-3.1-6.7-6-11.3l0-0.1l-0.4-1v-0.1c0-0.5,0.2-1.3,1.7-1.6l0.1,0l0.1,0c0.5,0.1,1.1,0.5,2.3,3c1.7,2.2,3.7,6.1,6.1,11.9
					c2-15.1,3.1-15.5,3.8-15.7c0.3-0.1,0.6,0,0.8,0.1c0.8,0.2,1.2,1,1.3,1.3l0.1,0.2l0,0.2c-1.4,5.7-2.4,11.8-3,18.1
					c-0.6,6.4-1.4,12-2.4,16.7l0,0.2L141.5,74z M140.7,72.3c0,0.1,0.2,0.3,0.7,0.4l0.3-0.2c1-4.6,1.8-10.1,2.4-16.3
					c0.6-6.3,1.6-12.4,3-18.1c-0.2-0.5-0.4-0.6-0.5-0.6h-0.2l-0.1-0.1c-0.5,0.6-1.6,3.5-3.2,16.7l-0.3,2.1l-1.2-3
					c-2.6-6.1-4.7-10.4-6.4-12.6l-0.1-0.1c-0.9-1.8-1.3-2.2-1.4-2.4c-0.5,0.1-0.6,0.3-0.7,0.4l0.3,0.8c2.9,4.7,4.9,8.5,6,11.5
					c0.8,2.3,2,4.4,3.5,6.3l0.2,0.2L140.7,72.3z"/>
			</g>
		</g>
	</g>
	<g>
		<path fill="#FFFFFF" d="M43.3,13.1c-0.1,0-0.1,0.1-0.2,0.1C43.2,13.3,43.2,13.2,43.3,13.1z"/>
		<path fill="#FFFFFF" d="M113.4,13.1c0.1,0.1,0.2,0.1,0.2,0.1C113.5,13.2,113.4,13.2,113.4,13.1z"/>
		<path fill="#FFFFFF" d="M117.9,6.9c-5-1-7.6,4.3-4.6,6.3c-0.2-0.2-0.7-0.8-0.3-1.9c0.5-1.5,2.9-2,4.4-0.7c3.2,2.7,2.2,7-0.7,9.3
			c-5.2,4.2-24.5,0.3-29.9-1.3c-2.2-0.6-4.1-1.2-5.6-1.8c-1.2-0.4-2.2-0.8-3-1.2c0,0,0,0,0,0c-0.8,0.4-1.8,0.7-3,1.2
			c-1.5,0.5-3.4,1.1-5.6,1.8c-5.3,1.5-24.6,5.5-29.9,1.3c-2.9-2.3-3.9-6.7-0.7-9.3c1.5-1.2,3.9-0.7,4.4,0.7c0.4,1.1,0,1.7-0.3,1.9
			c3.1-2,0.4-7.3-4.6-6.3c-6.9,1.4-7.3,9.3-3.8,14.2c5.8,8,32.9,11.9,43.4,0.6C88.9,33,116,29,121.7,21.1
			C125.3,16.2,124.8,8.3,117.9,6.9z"/>
	</g>
	<g>
		<path fill="#FFFFFF" d="M26,86.1h-0.7v-6h-1.6v-0.7h4v0.7H26V86.1z"/>
		<path fill="#FFFFFF" d="M35.2,82.1v-2.7H36v6.7h-0.7v-3.3h-3.4v3.3h-0.7v-6.7h0.7v2.7H35.2z"/>
		<path fill="#FFFFFF" d="M40,79.4h3.5v0.7h-2.7v2h2.6v0.7h-2.6v2.6h2.7v0.7H40V79.4z"/>
		<path fill="#FFFFFF" d="M53.6,80.1v2h2.2v0.7h-2.2v3.3h-0.7v-6.7h3v0.7H53.6z"/>
		<path fill="#FFFFFF" d="M60,84.2l-0.8,1.9h-0.8l3.1-7l3,7h-0.8l-0.8-1.9H60z M61.5,80.8l-1.1,2.7h2.3L61.5,80.8z"/>
		<path fill="#FFFFFF" d="M70.9,80.7c-0.3-0.5-0.6-0.7-1.2-0.7c-0.6,0-1.1,0.4-1.1,1c0,0.6,0.6,0.8,1,1l0.4,0.2
			c0.9,0.4,1.6,0.8,1.6,1.9c0,1.2-0.9,2.1-2.1,2.1c-1.1,0-1.9-0.7-2.1-1.7l0.7-0.2c0.1,0.7,0.6,1.2,1.3,1.2c0.7,0,1.4-0.6,1.4-1.3
			c0-0.8-0.6-1-1.2-1.3l-0.4-0.2c-0.8-0.4-1.5-0.8-1.5-1.7c0-1,0.9-1.7,1.9-1.7c0.7,0,1.4,0.4,1.7,1L70.9,80.7z"/>
		<path fill="#FFFFFF" d="M77.2,86.1h-0.7v-6h-1.6v-0.7h4v0.7h-1.6V86.1z"/>
		<path fill="#FFFFFF" d="M88.4,86.1h-0.7v-6.7h0.7V86.1z"/>
		<path fill="#FFFFFF" d="M94.2,86.1h-0.7v-6h-1.6v-0.7h4v0.7h-1.6V86.1z"/>
		<path fill="#FFFFFF" d="M99.6,84.2l-0.8,1.9H98l3.1-7l3,7h-0.8l-0.8-1.9H99.6z M101,80.8l-1.1,2.7h2.3L101,80.8z"/>
		<path fill="#FFFFFF" d="M108.2,85.4h1.8v0.7h-2.6v-6.7h0.7V85.4z"/>
		<path fill="#FFFFFF" d="M114.2,86.1h-0.7v-6.7h0.7V86.1z"/>
		<path fill="#FFFFFF" d="M119.2,84.2l-0.8,1.9h-0.8l3.1-7l3,7h-0.8l-0.8-1.9H119.2z M120.6,80.8l-1.1,2.7h2.3L120.6,80.8z"/>
		<path fill="#FFFFFF" d="M127.1,79.1l5.2,5.5v-5.2h0.7v7l-5.2-5.4v5.1h-0.7V79.1z"/>
	</g>
</g>
</svg>
